<svg width="20" height="20" viewBox="0 0 20 20" fill="none" xmlns="http://www.w3.org/2000/svg">
<circle cx="10" cy="10" r="10" fill="#FF69D4"/>
<g clip-path="url(#clip0_22_392)">
<path d="M11.6667 8.66668C11.1133 8.66668 10.6667 8.22001 10.6667 7.66668V4.33334C10.6667 3.78001 11.1133 3.33334 11.6667 3.33334C12.22 3.33334 12.6667 3.78001 12.6667 4.33334V7.66668C12.6667 8.22001 12.22 8.66668 11.6667 8.66668Z" stroke="white" stroke-width="2" stroke-linecap="round" stroke-linejoin="round"/>
<path d="M15.6667 8.66666H14.6667V7.66666C14.6667 7.11332 15.1133 6.66666 15.6667 6.66666C16.22 6.66666 16.6667 7.11332 16.6667 7.66666C16.6667 8.21999 16.22 8.66666 15.6667 8.66666Z" stroke="white" stroke-width="2" stroke-linecap="round" stroke-linejoin="round"/>
<path d="M8.33333 11.3333C8.88666 11.3333 9.33333 11.78 9.33333 12.3333V15.6667C9.33333 16.22 8.88666 16.6667 8.33333 16.6667C7.77999 16.6667 7.33333 16.22 7.33333 15.6667V12.3333C7.33333 11.78 7.77999 11.3333 8.33333 11.3333Z" stroke="white" stroke-width="2" stroke-linecap="round" stroke-linejoin="round"/>
<path d="M4.33333 11.3333H5.33333V12.3333C5.33333 12.8867 4.88666 13.3333 4.33333 13.3333C3.77999 13.3333 3.33333 12.8867 3.33333 12.3333C3.33333 11.78 3.77999 11.3333 4.33333 11.3333Z" stroke="white" stroke-width="2" stroke-linecap="round" stroke-linejoin="round"/>
<path d="M11.3333 11.6667C11.3333 11.1133 11.78 10.6667 12.3333 10.6667H15.6667C16.22 10.6667 16.6667 11.1133 16.6667 11.6667C16.6667 12.22 16.22 12.6667 15.6667 12.6667H12.3333C11.78 12.6667 11.3333 12.22 11.3333 11.6667Z" stroke="white" stroke-width="2" stroke-linecap="round" stroke-linejoin="round"/>
<path d="M12.3333 14.6667H11.3333V15.6667C11.3333 16.22 11.78 16.6667 12.3333 16.6667C12.8867 16.6667 13.3333 16.22 13.3333 15.6667C13.3333 15.1133 12.8867 14.6667 12.3333 14.6667Z" stroke="white" stroke-width="2" stroke-linecap="round" stroke-linejoin="round"/>
<path d="M8.66666 8.33334C8.66666 7.78001 8.22 7.33334 7.66666 7.33334H4.33333C3.77999 7.33334 3.33333 7.78001 3.33333 8.33334C3.33333 8.88668 3.77999 9.33334 4.33333 9.33334H7.66666C8.22 9.33334 8.66666 8.88668 8.66666 8.33334Z" stroke="white" stroke-width="2" stroke-linecap="round" stroke-linejoin="round"/>
<path d="M7.66667 5.33334H8.66667V4.33334C8.66667 3.78001 8.22001 3.33334 7.66667 3.33334C7.11334 3.33334 6.66667 3.78001 6.66667 4.33334C6.66667 4.88668 7.11334 5.33334 7.66667 5.33334Z" stroke="white" stroke-width="2" stroke-linecap="round" stroke-linejoin="round"/>
</g>
<defs>
<clipPath id="clip0_22_392">
<rect width="16" height="16" fill="white" transform="translate(2 2)"/>
</clipPath>
</defs>
</svg>
