<svg width="16" height="16" viewBox="0 0 16 16" fill="none" xmlns="http://www.w3.org/2000/svg">
<path d="M8.00001 12.1833L5.23334 13.85C5.11112 13.9278 4.98334 13.9611 4.85001 13.95C4.71667 13.9389 4.60001 13.8944 4.50001 13.8167C4.40001 13.7389 4.32223 13.6415 4.26667 13.5247C4.21112 13.4078 4.20001 13.2773 4.23334 13.1333L4.96667 9.98332L2.51667 7.86665C2.40556 7.76665 2.33623 7.65265 2.30867 7.52465C2.28112 7.39665 2.28934 7.27177 2.33334 7.14999C2.37778 7.02777 2.44445 6.92777 2.53334 6.84999C2.62223 6.77221 2.74445 6.72221 2.90001 6.69999L6.13334 6.41665L7.38334 3.44999C7.43889 3.31665 7.52512 3.21665 7.64201 3.14999C7.75889 3.08332 7.87823 3.04999 8.00001 3.04999C8.12223 3.04999 8.24156 3.08332 8.35801 3.14999C8.47445 3.21665 8.56067 3.31665 8.61667 3.44999L9.86667 6.41665L13.1 6.69999C13.2556 6.72221 13.3778 6.77221 13.4667 6.84999C13.5556 6.92777 13.6222 7.02777 13.6667 7.14999C13.7111 7.27221 13.7196 7.39732 13.692 7.52532C13.6644 7.65332 13.5949 7.7671 13.4833 7.86665L11.0333 9.98332L11.7667 13.1333C11.8 13.2778 11.7889 13.4084 11.7333 13.5253C11.6778 13.6422 11.6 13.7393 11.5 13.8167C11.4 13.8944 11.2833 13.9389 11.15 13.95C11.0167 13.9611 10.8889 13.9278 10.7667 13.85L8.00001 12.1833Z" fill="#F8F8F8"/>
</svg>
